<svg width="1080" height="1046" viewBox="0 0 1080 1046" fill="none" xmlns="http://www.w3.org/2000/svg">
<path d="M1123.32 86.5149C1222.75 124.327 1297.32 102.27 1322.18 86.5149C1384.32 20.3436 1376.87 96.9133 1421.61 138.507C1466.35 180.1 1402.97 218.858 1365.68 233.037V1046H-287.346L-288.057 1039.32C-323.55 705.89 -396.527 20.3436 -287.346 20.3436C-177.43 20.3436 -233.784 54.4478 -125.771 86.5149C-17.7589 118.582 29.5884 53.4292 116.59 20.3436C203.591 -12.7421 216.02 -8.01561 358.951 53.4292C501.882 114.874 483.238 20.3436 508.096 20.3436C532.954 20.3436 588.883 48.7027 644.812 53.4292C700.742 58.1558 787.743 53.4293 893.388 20.3436C999.032 -12.7421 999.032 39.2497 1123.32 86.5149Z" fill="#9A3B3B"/>
</svg>
