<svg width="1080" height="1011" viewBox="0 0 1080 1011" fill="none" xmlns="http://www.w3.org/2000/svg">
<path d="M153.345 97.7635C85.7186 140.492 34.9992 115.567 18.0927 97.7635C-24.1736 22.9886 -19.1015 109.514 -49.5332 156.515C-79.9649 203.517 -36.8533 247.313 -11.4936 263.337V1182H1112.79L1113.27 1174.45C1137.41 797.666 1187.05 22.9886 1112.79 22.9886C1038.03 22.9886 1076.36 61.5271 1002.9 97.7635C929.432 134 897.229 60.3761 838.057 22.9886C778.884 -14.3988 770.431 -9.05779 673.219 60.3761C576.006 129.81 588.686 22.9886 571.78 22.9886C554.873 22.9886 516.834 55.035 478.794 60.3761C440.755 65.7171 381.582 60.3761 309.729 22.9886C237.877 -14.3989 237.877 44.3529 153.345 97.7635Z" fill="#E2C799" fill-opacity="0.7"/>
</svg>
